{"title":"Golpe A Golpe - Se Queda En La Discoteca (h264/mp4)","uid":7766836,"size":88931941,"categoryP":"video","categoryS":"music_videos","magnet":"?xt=urn:btih:7f615cc94d45a9f666823ab40bac7f64f1a7f689&amp;dn=Golpe+A+Golpe+-+Se+Queda+En+La+Discoteca+%28h264%2Fmp4%29&amp;tr=udp%3A%2F%2Ftracker.openbittorrent.com%3A80&amp;tr=udp%3A%2F%2Fopen.demonii.com%3A1337&amp;tr=udp%3A%2F%2Ftracker.coppersurfer.tk%3A6969&amp;tr=udp%3A%2F%2Fexodus.desync.com%3A6969","seeders":1,"leechers":0,"uploader":"MusicVideos-HQ","files":1,"time":1351398927,"description":"General\n\nFormat                         : MPEG-4\nFormat profile                 : Base Media\nCodec ID                       : isom\nFile size                      : 84.8 MiB\nDuration                       : 3mn 23s\nOverall bit rate mode          : Variable\nOverall bit rate               : 3 497 Kbps\nEncoded date                   : UTC 2012-10-22 04:04:12\nTagged date                    : UTC 2012-10-22 04:04:12\n\nVideo\nID                             : 1\nFormat                         : AVC\nFormat/Info                    : Advanced Video Codec\nFormat profile                 : &lt;a class=&quot;__cf_email__&quot; href=&quot;/cdn-cgi/l/email-protection&quot; data-cfemail=&quot;6820010f0028245b4658&quot;&gt;[email&amp;#160;protected]&lt;/a&gt;&lt;script cf-hash='f9e31' type=&quot;text/javascript&quot;&gt;\n/* &lt;![CDATA[ */!function(){try{var t=&quot;currentScript&quot;in document?document.currentScript:function(){for(var t=document.getElementsByTagName(&quot;script&quot;),e=t.length;e--;)if(t[e].getAttribute(&quot;cf-hash&quot;))return t[e]}();if(t&amp;&amp;t.previousSibling){var e,r,n,i,c=t.previousSibling,a=c.getAttribute(&quot;data-cfemail&quot;);if(a){for(e=&quot;&quot;,r=parseInt(a.substr(0,2),16),n=2;a.length-n;n+=2)i=parseInt(a.substr(n,2),16)^r,e+=String.fromCharCode(i);e=document.createTextNode(e),c.parentNode.replaceChild(e,c)}}}catch(u){}}();/* ]]&gt; */&lt;/script&gt;\nFormat settings, CABAC         : Yes\nFormat settings, ReFrames      : 2 frames\nCodec ID                       : avc1\nCodec ID/Info                  : Advanced Video Coding\nDuration                       : 3mn 23s\nBit rate                       : 3 304 Kbps\nMaximum bit rate               : 7 443 Kbps\nWidth                          : 720 pixels\nHeight                         : 480 pixels\nDisplay aspect ratio           : 16:9\nOriginal display aspect ratio  : 16:9\nFrame rate mode                : Constant\nFrame rate                     : 24.000 fps\nStandard                       : NTSC\nColor space                    : YUV\nChroma subsampling             : 4:2:0\nBit depth                      : 8 bits\nScan type                      : Progressive\nBits/(Pixel*Frame)             : 0.398\nStream size                    : 80.1 MiB (94%)\nWriting library                : x264 core 125 r2208 d9d2288\n\n\nAudio\nID                             : 2\nFormat                         : AAC\nFormat/Info                    : Advanced Audio Codec\nFormat profile                 : LC\nCodec ID                       : 40\nDuration                       : 3mn 23s\nBit rate mode                  : Variable\nBit rate                       : 192 Kbps\nMaximum bit rate               : 216 Kbps\nChannel(s)                     : 2 channels\nChannel positions              : Front: L R\nSampling rate                  : 44.1 KHz\nCompression mode               : Lossy\nStream size                    : 4.58 MiB (5%)","torrent":{"xt":"urn:btih:7f615cc94d45a9f666823ab40bac7f64f1a7f689","amp;dn":"Golpe+A+Golpe+-+Se+Queda+En+La+Discoteca+%28h264%2Fmp4%29","amp;tr":["udp%3A%2F%2Ftracker.openbittorrent.com%3A80","udp%3A%2F%2Fopen.demonii.com%3A1337","udp%3A%2F%2Ftracker.coppersurfer.tk%3A6969","udp%3A%2F%2Fexodus.desync.com%3A6969"],"infoHash":"7f615cc94d45a9f666823ab40bac7f64f1a7f689","infoHashBuffer":{"type":"Buffer","data":[127,97,92,201,77,69,169,246,102,130,58,180,11,172,127,100,241,167,246,137]},"announce":[],"urlList":[]}}